<svg xmlns="http://www.w3.org/2000/svg" width="66.719" height="74.625" viewBox="0 0 66.719 74.625">
    <defs>
        <style>
            .cls-1 {
            fill: #fff;
            fill-rule: evenodd;
            }
        </style>
    </defs>
    <path id="Login" class="cls-1" d="M148.121,382.182A36.1,36.1,0,0,0,127,389a2.02,2.02,0,0,0-.475,2.784,1.951,1.951,0,0,0,2.74.482,32.227,32.227,0,0,1,18.858-6.087c18.083,0,32.8,14.948,32.8,33.323s-14.714,33.323-32.8,33.323a32.209,32.209,0,0,1-18.858-6.088,1.94,1.94,0,0,0-2.739.481A2.021,2.021,0,0,0,127,450a36.079,36.079,0,0,0,21.123,6.817c20.251,0,36.729-16.741,36.729-37.318S168.372,382.182,148.121,382.182Zm-2.22,49.284a2.019,2.019,0,0,0,0,2.824,1.944,1.944,0,0,0,2.78,0l13.171-13.378a2.027,2.027,0,0,0,0-2.825l-13.171-13.379a1.942,1.942,0,0,0-2.78,0,2.019,2.019,0,0,0,0,2.824l9.814,9.97H120.093a2,2,0,0,0,0,4h35.622Z" transform="translate(-118.125 -382.188)"></path>
</svg>